<svg xmlns="http://www.w3.org/2000/svg" viewBox="0 0 512 512"><path d="M246.875 324.82q1.329.06 2.657.102c.602.019 1.203.039 1.806.052 1.555.036 3.11.06 4.662.06s3.107-.024 4.662-.06c.603-.013 1.204-.033 1.806-.052q1.328-.042 2.657-.103c.804-.035 1.609-.07 2.411-.115.21-.012.419-.028.628-.04 52.592-3.096 100.712-26.184 133.449-64.438L405.23 256l-3.617-4.226c-33.55-39.205-83.259-62.478-137.379-64.628l-.876-.034c-1.108-.04-2.218-.073-3.33-.094-.273-.006-.547-.007-.821-.01-1.068-.017-2.135-.042-3.206-.042s-2.138.025-3.207.041c-.274.004-.547.005-.821.01-1.112.022-2.221.056-3.33.095l-.877.034c-54.12 2.15-103.828 25.423-137.379 64.628L106.77 256l3.617 4.226c32.737 38.254 80.857 61.342 133.449 64.438.21.012.418.028.628.04.802.045 1.607.08 2.411.115zm5.473-12.83q-1.483-.029-2.966-.082-.41-.014-.818-.03a190.274 190.274 0 0 1-20.46-1.898 60.761 60.761 0 0 1 0-107.959 190.288 190.288 0 0 1 20.461-1.898l.817-.03q1.483-.051 2.967-.081c.283-.005.566-.007.849-.01q2.802-.042 5.604 0c.283.003.567.005.85.01q1.484.028 2.966.081l.82.03a190.351 190.351 0 0 1 20.46 1.898 60.761 60.761 0 0 1 0 107.959 190.274 190.274 0 0 1-20.461 1.898l-.818.03q-1.483.051-2.967.081c-.283.006-.566.007-.85.01q-2.801.042-5.603 0c-.284-.004-.568-.005-.85-.01zM387.991 256a171.856 171.856 0 0 1-75.461 47.463 73.978 73.978 0 0 0 0-94.926A171.856 171.856 0 0 1 387.99 256zm-263.982 0a171.856 171.856 0 0 1 75.461-47.463 73.978 73.978 0 0 0 0 94.926A171.856 171.856 0 0 1 124.01 256z"/><circle cx="256" cy="256" r="37.876"/><path d="M396.59 388.09h-41.98v13h42.48a12.514 12.514 0 0 0 12.5-12.5v-42.48h-13zM397.09 110.91h-42.48v13h41.98v41.98h13v-42.48a12.514 12.514 0 0 0-12.5-12.5zM115.41 346.11h-13v42.48a12.514 12.514 0 0 0 12.5 12.5h42.48v-13h-41.98zM115.41 123.91h41.98v-13h-42.48a12.514 12.514 0 0 0-12.5 12.5v42.48h13z"/></svg>