<svg version="1.1" id="SEO" xmlns="http://www.w3.org/2000/svg" x="0" y="0" viewBox="0 0 128 128" style="enable-background:new 0 0 128 128" xml:space="preserve"><g id="row1"><path id="icon:1" transform="scale (-1, 1)" transform-origin="center" d="M115 75.7c18.5-18.5 17.2-49.3-3.7-66.1C94.9-3.5 71-3.1 55.1 10.4c-18.8 15.9-20.8 43.5-5.9 61.8L37.8 83.6l-3.3-3.3L2.7 112c-3.6 3.6-3.6 9.6 0 13.2 3.6 3.6 9.6 3.6 13.2 0l31.8-31.8-3.3-3.3 11.3-11.3c17.5 14.1 43.1 13.1 59.3-3.1zM58.9 19.6c13.7-13.7 35.9-13.7 49.5 0s13.7 35.9 0 49.5c-13.7 13.7-35.9 13.7-49.5 0s-13.7-35.9 0-49.5z" style="fill:#231f20"/></g></svg>