<svg xmlns="http://www.w3.org/2000/svg" viewBox="0 0 128 128" style="enable-background:new 0 0 128 128" xml:space="preserve"><path style="fill:#191919" d="M69.919 32.077H43.642V17.973h26.276v14.104zm0 3.757H43.642v7.273h26.276v-7.273zm-26.277 78.063h26.276V128H43.642v-14.103zm0-3.757h26.276v-7.273H43.642v7.273zm26.277-61.962H43.642v50.3h26.276v-50.3zM38.084 32.077H11.807V17.973h26.276v14.104zm0 3.757H11.807v7.273h26.276v-7.273zm-26.277 78.063h26.276V128H11.807v-14.103zm0-3.757h26.276v-7.273H11.807v7.273zm26.277-61.962H11.807v50.3h26.276v-50.3zM98.335 13.92 72.4 18.144l-2.267-13.92L96.068 0l2.267 13.92zm.604 3.708-25.935 4.224 1.169 7.178 25.935-4.224-1.169-7.178zm-10.948 96.234 25.935-4.224 2.267 13.92-25.935 4.224-2.267-13.92zm-.604-3.708 25.935-4.224-1.169-7.178-25.935 4.224 1.169 7.178zm13.537-80.342-25.935 4.224 10.523 64.608 25.935-4.224-10.523-64.608z"/></svg>